<svg width="60" height="59" viewBox="0 0 60 59" fill="none" xmlns="http://www.w3.org/2000/svg">
<path d="M11 58.6582C14.2 58.6582 17.1 57.2582 19.1 55.0582C22.4 56.7582 26 57.6582 30 57.6582C34 57.6582 37.6 56.7582 40.9 55.0582C42.9 57.2582 45.8 58.6582 49 58.6582C55.1 58.6582 60 53.7582 60 47.6582C60 41.5582 57.4 39.4582 53.6 37.6582C53.8 36.3582 54 34.9582 54 33.6582C54 24.3582 48.7 16.3582 41 12.3582C41 12.1582 41 11.9582 41 11.6582C41 5.5582 36.1 0.658203 30 0.658203C23.9 0.658203 19 5.5582 19 11.6582C19 17.7582 19 12.0582 19 12.3582C11.3 16.3582 6 24.3582 6 33.6582C6 42.9582 6.1 36.3582 6.4 37.6582C2.6 39.4582 0 43.2582 0 47.6582C0 52.0582 4.9 58.6582 11 58.6582ZM56 47.6582C56 51.5582 52.9 54.6582 49 54.6582C45.1 54.6582 42 51.5582 42 47.6582C42 43.7582 45.1 40.6582 49 40.6582C52.9 40.6582 56 43.7582 56 47.6582ZM30 4.6582C33.9 4.6582 37 7.7582 37 11.6582C37 15.5582 33.9 18.6582 30 18.6582C26.1 18.6582 23 15.5582 23 11.6582C23 7.7582 26.1 4.6582 30 4.6582ZM20.1 16.3582C21.9 20.0582 25.7 22.6582 30 22.6582C34.3 22.6582 38.2 20.0582 39.9 16.3582C45.9 19.7582 50 26.2582 50 33.6582C50 41.0582 49.9 35.7582 49.7 36.6582C49.5 36.6582 49.2 36.6582 49 36.6582C42.9 36.6582 38 41.5582 38 47.6582C38 53.7582 38.3 50.3582 38.8 51.5582C36.2 52.8582 33.2 53.6582 30 53.6582C26.8 53.6582 23.9 52.8582 21.2 51.5582C21.7 50.3582 22 48.9582 22 47.6582C22 41.5582 17.1 36.6582 11 36.6582C4.9 36.6582 10.5 36.6582 10.3 36.6582C10.1 35.6582 10 34.6582 10 33.6582C10 26.2582 14.1 19.7582 20.1 16.3582ZM11 40.6582C14.9 40.6582 18 43.7582 18 47.6582C18 51.5582 14.9 54.6582 11 54.6582C7.1 54.6582 4 51.5582 4 47.6582C4 43.7582 7.1 40.6582 11 40.6582Z" fill="black"/>
</svg>
